<mxfile host="app.diagrams.net" modified="2024-06-20T10:22:55.396Z" agent="Mozilla/5.0 (Macintosh; Intel Mac OS X 10_15_7) AppleWebKit/537.36 (KHTML, like Gecko) Chrome/126.0.0.0 Safari/537.36" etag="4WFL5HwOQ7q3OJw2Hy5E" version="24.5.5" type="github">
  <diagram name="第 1 页" id="GO7Vx1S_WohTSjaYesyG">
    <mxGraphModel dx="984" dy="645" grid="1" gridSize="10" guides="1" tooltips="1" connect="1" arrows="1" fold="1" page="1" pageScale="1" pageWidth="827" pageHeight="1169" math="0" shadow="0">
      <root>
        <mxCell id="0" />
        <mxCell id="1" parent="0" />
        <mxCell id="KqpbwezZVcmIETooFnXk-3" value="" style="rounded=0;whiteSpace=wrap;html=1;" vertex="1" parent="1">
          <mxGeometry x="90" y="90" width="370" height="360" as="geometry" />
        </mxCell>
        <mxCell id="KqpbwezZVcmIETooFnXk-4" value="" style="rounded=0;whiteSpace=wrap;html=1;" vertex="1" parent="1">
          <mxGeometry x="590" y="90" width="370" height="360" as="geometry" />
        </mxCell>
        <mxCell id="KqpbwezZVcmIETooFnXk-22" style="edgeStyle=orthogonalEdgeStyle;rounded=0;orthogonalLoop=1;jettySize=auto;html=1;exitX=0;exitY=0.5;exitDx=0;exitDy=0;" edge="1" parent="1" source="KqpbwezZVcmIETooFnXk-5" target="KqpbwezZVcmIETooFnXk-13">
          <mxGeometry relative="1" as="geometry" />
        </mxCell>
        <mxCell id="KqpbwezZVcmIETooFnXk-23" value="注册" style="edgeLabel;html=1;align=center;verticalAlign=middle;resizable=0;points=[];" vertex="1" connectable="0" parent="KqpbwezZVcmIETooFnXk-22">
          <mxGeometry x="-0.12" y="1" relative="1" as="geometry">
            <mxPoint as="offset" />
          </mxGeometry>
        </mxCell>
        <mxCell id="KqpbwezZVcmIETooFnXk-5" value="Dubbo-Proxy集群" style="rounded=1;whiteSpace=wrap;html=1;" vertex="1" parent="1">
          <mxGeometry x="300" y="130" width="120" height="60" as="geometry" />
        </mxCell>
        <mxCell id="KqpbwezZVcmIETooFnXk-19" style="edgeStyle=orthogonalEdgeStyle;rounded=0;orthogonalLoop=1;jettySize=auto;html=1;exitX=1;exitY=0.5;exitDx=0;exitDy=0;entryX=0;entryY=0.5;entryDx=0;entryDy=0;" edge="1" parent="1" source="KqpbwezZVcmIETooFnXk-6" target="KqpbwezZVcmIETooFnXk-15">
          <mxGeometry relative="1" as="geometry" />
        </mxCell>
        <mxCell id="KqpbwezZVcmIETooFnXk-20" value="注册" style="edgeLabel;html=1;align=center;verticalAlign=middle;resizable=0;points=[];" vertex="1" connectable="0" parent="KqpbwezZVcmIETooFnXk-19">
          <mxGeometry x="0.12" y="3" relative="1" as="geometry">
            <mxPoint as="offset" />
          </mxGeometry>
        </mxCell>
        <mxCell id="KqpbwezZVcmIETooFnXk-6" value="Dubbo-Proxy集群" style="rounded=1;whiteSpace=wrap;html=1;" vertex="1" parent="1">
          <mxGeometry x="640" y="130" width="120" height="60" as="geometry" />
        </mxCell>
        <mxCell id="KqpbwezZVcmIETooFnXk-7" value="goods-service-app" style="rounded=1;whiteSpace=wrap;html=1;" vertex="1" parent="1">
          <mxGeometry x="300" y="250" width="120" height="60" as="geometry" />
        </mxCell>
        <mxCell id="KqpbwezZVcmIETooFnXk-24" style="edgeStyle=orthogonalEdgeStyle;rounded=0;orthogonalLoop=1;jettySize=auto;html=1;exitX=0;exitY=0.5;exitDx=0;exitDy=0;entryX=1;entryY=0.5;entryDx=0;entryDy=0;" edge="1" parent="1" source="KqpbwezZVcmIETooFnXk-8" target="KqpbwezZVcmIETooFnXk-3">
          <mxGeometry relative="1" as="geometry" />
        </mxCell>
        <mxCell id="KqpbwezZVcmIETooFnXk-27" value="网络不同" style="edgeLabel;html=1;align=center;verticalAlign=middle;resizable=0;points=[];" vertex="1" connectable="0" parent="KqpbwezZVcmIETooFnXk-24">
          <mxGeometry x="-0.1" y="1" relative="1" as="geometry">
            <mxPoint as="offset" />
          </mxGeometry>
        </mxCell>
        <mxCell id="KqpbwezZVcmIETooFnXk-8" value="goods-proxy-app" style="rounded=1;whiteSpace=wrap;html=1;" vertex="1" parent="1">
          <mxGeometry x="640" y="240" width="120" height="60" as="geometry" />
        </mxCell>
        <mxCell id="KqpbwezZVcmIETooFnXk-11" value="goods-service-search" style="rounded=1;whiteSpace=wrap;html=1;" vertex="1" parent="1">
          <mxGeometry x="130" y="360" width="120" height="60" as="geometry" />
        </mxCell>
        <mxCell id="KqpbwezZVcmIETooFnXk-12" value="goods-proxy-search" style="rounded=1;whiteSpace=wrap;html=1;" vertex="1" parent="1">
          <mxGeometry x="300" y="360" width="120" height="60" as="geometry" />
        </mxCell>
        <mxCell id="KqpbwezZVcmIETooFnXk-13" value="Nacos" style="rounded=1;whiteSpace=wrap;html=1;" vertex="1" parent="1">
          <mxGeometry x="130" y="130" width="120" height="60" as="geometry" />
        </mxCell>
        <mxCell id="KqpbwezZVcmIETooFnXk-14" value="GateWay" style="rounded=1;whiteSpace=wrap;html=1;" vertex="1" parent="1">
          <mxGeometry x="130" y="250" width="120" height="60" as="geometry" />
        </mxCell>
        <mxCell id="KqpbwezZVcmIETooFnXk-15" value="Nacos" style="rounded=1;whiteSpace=wrap;html=1;" vertex="1" parent="1">
          <mxGeometry x="810" y="130" width="120" height="60" as="geometry" />
        </mxCell>
        <mxCell id="KqpbwezZVcmIETooFnXk-16" value="GateWay" style="rounded=1;whiteSpace=wrap;html=1;" vertex="1" parent="1">
          <mxGeometry x="810" y="240" width="120" height="60" as="geometry" />
        </mxCell>
        <mxCell id="KqpbwezZVcmIETooFnXk-25" style="edgeStyle=orthogonalEdgeStyle;rounded=0;orthogonalLoop=1;jettySize=auto;html=1;exitX=1;exitY=0.5;exitDx=0;exitDy=0;entryX=0;entryY=0.828;entryDx=0;entryDy=0;entryPerimeter=0;" edge="1" parent="1" source="KqpbwezZVcmIETooFnXk-12" target="KqpbwezZVcmIETooFnXk-4">
          <mxGeometry relative="1" as="geometry" />
        </mxCell>
        <mxCell id="KqpbwezZVcmIETooFnXk-26" value="网络不同" style="edgeLabel;html=1;align=center;verticalAlign=middle;resizable=0;points=[];" vertex="1" connectable="0" parent="KqpbwezZVcmIETooFnXk-25">
          <mxGeometry x="0.0576" y="-1" relative="1" as="geometry">
            <mxPoint as="offset" />
          </mxGeometry>
        </mxCell>
        <mxCell id="KqpbwezZVcmIETooFnXk-32" style="edgeStyle=orthogonalEdgeStyle;rounded=0;orthogonalLoop=1;jettySize=auto;html=1;exitX=0;exitY=0.5;exitDx=0;exitDy=0;entryX=1.005;entryY=0.194;entryDx=0;entryDy=0;entryPerimeter=0;" edge="1" parent="1" source="KqpbwezZVcmIETooFnXk-6" target="KqpbwezZVcmIETooFnXk-3">
          <mxGeometry relative="1" as="geometry" />
        </mxCell>
        <mxCell id="KqpbwezZVcmIETooFnXk-37" style="edgeStyle=orthogonalEdgeStyle;rounded=0;orthogonalLoop=1;jettySize=auto;html=1;exitX=1;exitY=0.75;exitDx=0;exitDy=0;entryX=-0.008;entryY=0.233;entryDx=0;entryDy=0;entryPerimeter=0;" edge="1" parent="1" source="KqpbwezZVcmIETooFnXk-5" target="KqpbwezZVcmIETooFnXk-4">
          <mxGeometry relative="1" as="geometry" />
        </mxCell>
        <mxCell id="KqpbwezZVcmIETooFnXk-38" value="代理层可访问其他机房" style="text;html=1;align=center;verticalAlign=middle;whiteSpace=wrap;rounded=0;" vertex="1" parent="1">
          <mxGeometry x="500" y="120" width="60" height="30" as="geometry" />
        </mxCell>
      </root>
    </mxGraphModel>
  </diagram>
</mxfile>
